<svg width="1920" height="1080" viewBox="0 0 1920 1080" fill="none" xmlns="http://www.w3.org/2000/svg">
<g filter="url(#filter0_d_26_164)">
<path d="M506.5 232.5C489.7 -7.10001 104.833 -76.3333 -85.5 -81H2151.5L2165.5 1285.5H1372.5C1367.83 1197.33 1345.4 1006.1 1293 946.5C1227.5 872 984 836.5 848 778C712 719.5 527.5 532 506.5 232.5Z" fill="white"/>
</g>
<g filter="url(#filter1_d_26_164)">
<path d="M575.5 239C558.7 -0.600006 173.833 -69.8333 -16.5 -74.5H2220.5L2234.5 1292H1441.5C1436.83 1203.83 1414.4 1012.6 1362 953C1296.5 878.5 1053 843 917 784.5C781 726 596.5 538.5 575.5 239Z" fill="white"/>
</g>
<g filter="url(#filter2_d_26_164)">
<path d="M643.5 248C626.7 8.39999 241.833 -60.8333 51.5 -65.5H2288.5L2302.5 1301H1509.5C1504.83 1212.83 1482.4 1021.6 1430 962C1364.5 887.5 1121 852 985 793.5C849 735 664.5 547.5 643.5 248Z" fill="white"/>
</g>
<defs>
<filter id="filter0_d_26_164" x="-107.5" y="-103" width="2295" height="1410.5" filterUnits="userSpaceOnUse" color-interpolation-filters="sRGB">
<feFlood flood-opacity="0" result="BackgroundImageFix"/>
<feColorMatrix in="SourceAlpha" type="matrix" values="0 0 0 0 0 0 0 0 0 0 0 0 0 0 0 0 0 0 127 0" result="hardAlpha"/>
<feOffset/>
<feGaussianBlur stdDeviation="11"/>
<feComposite in2="hardAlpha" operator="out"/>
<feColorMatrix type="matrix" values="0 0 0 0 0 0 0 0 0 0 0 0 0 0 0 0 0 0 0.1 0"/>
<feBlend mode="normal" in2="BackgroundImageFix" result="effect1_dropShadow_26_164"/>
<feBlend mode="normal" in="SourceGraphic" in2="effect1_dropShadow_26_164" result="shape"/>
</filter>
<filter id="filter1_d_26_164" x="-38.5" y="-96.5" width="2295" height="1410.5" filterUnits="userSpaceOnUse" color-interpolation-filters="sRGB">
<feFlood flood-opacity="0" result="BackgroundImageFix"/>
<feColorMatrix in="SourceAlpha" type="matrix" values="0 0 0 0 0 0 0 0 0 0 0 0 0 0 0 0 0 0 127 0" result="hardAlpha"/>
<feOffset/>
<feGaussianBlur stdDeviation="11"/>
<feComposite in2="hardAlpha" operator="out"/>
<feColorMatrix type="matrix" values="0 0 0 0 0 0 0 0 0 0 0 0 0 0 0 0 0 0 0.1 0"/>
<feBlend mode="normal" in2="BackgroundImageFix" result="effect1_dropShadow_26_164"/>
<feBlend mode="normal" in="SourceGraphic" in2="effect1_dropShadow_26_164" result="shape"/>
</filter>
<filter id="filter2_d_26_164" x="29.5" y="-87.5" width="2295" height="1410.5" filterUnits="userSpaceOnUse" color-interpolation-filters="sRGB">
<feFlood flood-opacity="0" result="BackgroundImageFix"/>
<feColorMatrix in="SourceAlpha" type="matrix" values="0 0 0 0 0 0 0 0 0 0 0 0 0 0 0 0 0 0 127 0" result="hardAlpha"/>
<feOffset/>
<feGaussianBlur stdDeviation="11"/>
<feComposite in2="hardAlpha" operator="out"/>
<feColorMatrix type="matrix" values="0 0 0 0 0 0 0 0 0 0 0 0 0 0 0 0 0 0 0.1 0"/>
<feBlend mode="normal" in2="BackgroundImageFix" result="effect1_dropShadow_26_164"/>
<feBlend mode="normal" in="SourceGraphic" in2="effect1_dropShadow_26_164" result="shape"/>
</filter>
</defs>
</svg>
