<svg width="35" height="35" viewBox="0 0 35 35" fill="none" xmlns="http://www.w3.org/2000/svg">
<g filter="url(#filter0_b_36_177)">
<path d="M34.4619 17.231C34.4619 7.71691 26.745 0 17.231 0C7.71691 0 0 7.71691 0 17.231C0 25.8296 6.30007 32.9609 14.5386 34.2533V22.2118H10.1636V17.231H14.5386V13.4348C14.5386 9.11693 17.1132 6.73084 21.0473 6.73084C22.932 6.73084 24.9041 7.06739 24.9041 7.06739V11.3078H22.7301C20.5897 11.3078 19.9233 12.6372 19.9233 14.0002V17.231H24.7022L23.9382 22.2118H19.9233V34.2533C28.1618 32.9609 34.4619 25.833 34.4619 17.231Z" fill="#101010"/>
<path d="M23.9383 22.2118L24.7023 17.231H19.9234V14.0002C19.9234 12.6372 20.5897 11.3079 22.7301 11.3079H24.9042V7.06744C24.9042 7.06744 22.932 6.7309 21.0474 6.7309C17.1132 6.7309 14.5387 9.11362 14.5387 13.4348V17.231H10.1636V22.2118H14.5387V34.2533C15.4171 34.3913 16.3156 34.462 17.231 34.462C18.1464 34.462 19.045 34.3879 19.9234 34.2533V22.2118H23.9383Z" fill="#FEFEFE"/>
</g>
<defs>
<filter id="filter0_b_36_177" x="-32" y="-32" width="98.4619" height="98.462" filterUnits="userSpaceOnUse" color-interpolation-filters="sRGB">
<feFlood flood-opacity="0" result="BackgroundImageFix"/>
<feGaussianBlur in="BackgroundImage" stdDeviation="16"/>
<feComposite in2="SourceAlpha" operator="in" result="effect1_backgroundBlur_36_177"/>
<feBlend mode="normal" in="SourceGraphic" in2="effect1_backgroundBlur_36_177" result="shape"/>
</filter>
</defs>
</svg>
