<svg width="35" height="25" viewBox="0 0 35 25" fill="none" xmlns="http://www.w3.org/2000/svg">
<g filter="url(#filter0_b_36_186)">
<path d="M34.1803 4.01502C33.7855 2.53059 32.6224 1.36155 31.1453 0.964805C28.4684 0.243774 17.7337 0.243774 17.7337 0.243774C17.7337 0.243774 6.99911 0.243774 4.32213 0.964805C2.84511 1.36155 1.68187 2.53059 1.2872 4.01502C0.569824 6.70574 0.569824 12.3194 0.569824 12.3194C0.569824 12.3194 0.569824 17.9331 1.2872 20.6238C1.68187 22.1083 2.84511 23.2772 4.32213 23.6741C6.99911 24.3949 17.7337 24.3949 17.7337 24.3949C17.7337 24.3949 28.4684 24.3949 31.1453 23.6741C32.6224 23.2772 33.7855 22.1081 34.1803 20.624C34.8976 17.933 34.8976 12.3194 34.8976 12.3194C34.8976 12.3194 34.8976 6.70574 34.1803 4.01502Z" fill="#101010"/>
<path d="M14.2229 17.4161L23.195 12.3196L14.2229 7.22253V17.4161Z" fill="white"/>
</g>
<defs>
<filter id="filter0_b_36_186" x="-31.4302" y="-31.7562" width="98.3278" height="88.1512" filterUnits="userSpaceOnUse" color-interpolation-filters="sRGB">
<feFlood flood-opacity="0" result="BackgroundImageFix"/>
<feGaussianBlur in="BackgroundImage" stdDeviation="16"/>
<feComposite in2="SourceAlpha" operator="in" result="effect1_backgroundBlur_36_186"/>
<feBlend mode="normal" in="SourceGraphic" in2="effect1_backgroundBlur_36_186" result="shape"/>
</filter>
</defs>
</svg>
