<svg width="35" height="29" viewBox="0 0 35 29" fill="none" xmlns="http://www.w3.org/2000/svg">
<g filter="url(#filter0_b_36_185)">
<path d="M11.0711 28.7432C24.1072 28.7432 31.2362 17.789 31.2362 8.28985C31.2362 7.97874 31.2299 7.66905 31.2161 7.36065C32.6032 6.34266 33.8003 5.08216 34.7514 3.63822C33.4815 4.21081 32.1149 4.59623 30.6815 4.77C32.1446 3.87996 33.268 2.47223 33.798 0.793966C32.4066 1.63113 30.8847 2.22125 29.2976 2.5389C28.0043 1.14164 26.1631 0.2677 24.1242 0.2677C20.2104 0.2677 17.0366 3.48702 17.0366 7.4553C17.0366 8.01942 17.0988 8.56815 17.2204 9.09441C11.33 8.79377 6.10687 5.93329 2.61125 1.58372C1.98166 2.68068 1.65048 3.92751 1.65156 5.1968C1.65156 7.6908 2.90278 9.89251 4.80546 11.1805C3.68001 11.1457 2.57925 10.8374 1.59569 10.2814C1.59464 10.3117 1.59464 10.3411 1.59464 10.3733C1.59464 13.8547 4.03762 16.7614 7.28054 17.42C6.67147 17.5883 6.04298 17.6734 5.41171 17.673C4.96466 17.6727 4.51864 17.6293 4.07969 17.5434C4.982 20.3996 7.59839 22.4781 10.7004 22.5362C8.27465 24.4646 5.21894 25.6132 1.89789 25.6132C1.32653 25.6132 0.76212 25.5803 0.207336 25.5138C3.34396 27.553 7.06806 28.7432 11.0711 28.7432Z" fill="#101010"/>
</g>
<defs>
<filter id="filter0_b_36_185" x="-31.7927" y="-31.7323" width="98.5441" height="92.4755" filterUnits="userSpaceOnUse" color-interpolation-filters="sRGB">
<feFlood flood-opacity="0" result="BackgroundImageFix"/>
<feGaussianBlur in="BackgroundImage" stdDeviation="16"/>
<feComposite in2="SourceAlpha" operator="in" result="effect1_backgroundBlur_36_185"/>
<feBlend mode="normal" in="SourceGraphic" in2="effect1_backgroundBlur_36_185" result="shape"/>
</filter>
</defs>
</svg>
